<svg width="40" height="40" viewBox="0 0 40 40" fill="none" xmlns="http://www.w3.org/2000/svg">
<path d="M33.3158 11.0653C33.3158 10.6465 33.2879 10.2278 33.26 9.83695C33.1483 8.77613 32.9529 7.77115 32.6179 6.79408C31.6409 6.51492 30.608 6.34742 29.5471 6.29159C29.3517 6.29159 29.1563 6.26367 28.9609 6.26367C25.3876 6.26367 22.1493 7.6874 19.7764 10.0044C18.8273 9.78112 17.8781 9.66945 16.8732 9.66945C14.1653 9.66945 11.6528 10.479 9.5591 11.8748C8.6937 12.4611 7.88412 13.1311 7.18622 13.8848C7.40955 14.9177 7.74454 15.8948 8.1912 16.816C9.81035 20.166 12.7974 22.7063 16.4265 23.7672C17.5711 27.1171 19.9998 29.8529 23.1543 31.3604C24.0476 31.807 25.0247 32.142 26.0297 32.3654C26.7555 31.6675 27.4255 30.8579 27.9838 29.9925C29.2959 27.9267 30.0775 25.498 30.0775 22.8738C30.0775 21.8968 29.9659 20.9476 29.7705 20.0543C31.9758 17.7093 33.3158 14.5269 33.3158 11.0653ZM15.7286 19.496C15.7286 19.9147 15.7565 20.3335 15.7844 20.7243C13.1882 19.5518 11.1503 17.4023 10.1453 14.6944C11.9599 13.2148 14.3049 12.2936 16.8452 12.2936C17.1802 12.2936 17.4873 12.3215 17.8223 12.3494C16.5102 14.4152 15.7286 16.8718 15.7286 19.496ZM18.576 21.5339C18.4365 20.8639 18.3806 20.1939 18.3806 19.496C18.3806 17.0393 19.2181 14.806 20.6139 13.0194C23.4893 14.1081 25.7505 16.3973 26.7834 19.2726C24.9689 20.7522 22.6239 21.6734 20.0835 21.6734C19.581 21.6176 19.0785 21.5897 18.576 21.5339ZM25.1922 29.3783C22.7077 28.4292 20.6977 26.6146 19.4973 24.2697C19.6927 24.2697 19.8881 24.2976 20.0835 24.2976C22.7914 24.2976 25.3039 23.488 27.3976 22.0922C27.4255 22.3713 27.4255 22.6226 27.4255 22.9018C27.4255 25.3305 26.6159 27.5638 25.1922 29.3783ZM22.6518 11.0094C24.4105 9.69737 26.588 8.91572 28.9609 8.91572C29.4913 8.91572 29.9938 8.94363 30.4684 9.02738C30.608 9.69737 30.6638 10.3674 30.6638 11.0653C30.6638 13.3265 29.9659 15.4202 28.7376 17.1231C27.4534 14.471 25.3039 12.2936 22.6518 11.0094Z" fill="#3D84FF"/>
<path d="M16.8732 26.8657C16.8732 26.8657 16.7615 25.749 15.5611 24.6044C14.3607 23.4599 13.244 23.3761 13.244 23.3761C5.45541 21.9245 6.76747 33.7051 6.76747 33.7051C6.76747 33.7051 18.576 34.5985 16.8732 26.8657ZM9.27993 31.081C9.27993 31.081 9.08452 25.5536 12.7136 25.9444C12.7136 25.9444 13.244 25.9444 13.7744 26.4469C14.3049 26.9494 14.3049 27.4798 14.3049 27.4798C14.8074 31.081 9.27993 31.081 9.27993 31.081Z" fill="#3D84FF"/>
</svg>
